<svg xmlns="http://www.w3.org/2000/svg" xmlns:xlink="http://www.w3.org/1999/xlink" width="500" zoomAndPan="magnify" viewBox="0 0 375 374.999991" height="500" preserveAspectRatio="xMidYMid meet" version="1.0"><defs><g/></defs><path fill="#3f5965" d="M 249.1875 334.515625 C 253.40625 333.261719 257.515625 331.820312 261.519531 330.210938 C 192.289062 343.910156 122.738281 302.882812 102.246094 233.878906 C 81.753906 164.871094 117.640625 92.535156 183.125 66.226562 C 178.894531 67.0625 174.664062 68.097656 170.441406 69.347656 C 97.21875 91.09375 55.488281 168.082031 77.230469 241.304688 C 98.976562 314.527344 175.960938 356.261719 249.1875 334.515625 " fill-opacity="1" fill-rule="nonzero"/><path fill="#289db9" d="M 77.820312 299.414062 C 81.496094 302.292969 85.261719 304.957031 89.109375 307.429688 C 34.808594 255.996094 27.609375 170.71875 74.683594 110.679688 C 121.757812 50.644531 206.292969 37.292969 269.195312 77.757812 C 265.875 74.617188 262.390625 71.589844 258.71875 68.710938 C 195.011719 18.757812 102.871094 29.910156 52.917969 93.613281 C 2.96875 157.320312 14.117188 249.460938 77.820312 299.414062 " fill-opacity="1" fill-rule="nonzero"/><path fill="#289db9" d="M 214.132812 292.714844 C 176.355469 282.5625 145.28125 259.910156 124.148438 230.414062 C 140.808594 267.199219 173.191406 296.511719 215.230469 307.8125 C 270.148438 322.574219 326.21875 302.480469 359.957031 261.078125 C 320.722656 293.40625 266.964844 306.917969 214.132812 292.714844 " fill-opacity="1" fill-rule="nonzero"/><g fill="#3f5965" fill-opacity="1"><g transform="translate(105.429115, 216.166799)"><g><path d="M 33.953125 -16.078125 C 34.535156 -19.347656 32.925781 -21.851562 29.125 -23.59375 L 21.15625 -26.765625 C 11.894531 -30.898438 7.5 -36.585938 7.96875 -43.828125 C 8.164062 -47.191406 9.269531 -50.164062 11.28125 -52.75 C 13.289062 -55.34375 16.113281 -57.375 19.75 -58.84375 C 23.382812 -60.320312 27.304688 -61.035156 31.515625 -60.984375 C 37.328125 -60.867188 42.023438 -59.140625 45.609375 -55.796875 C 49.191406 -52.453125 50.953125 -47.96875 50.890625 -42.34375 L 38.828125 -42.34375 C 38.972656 -45.070312 38.375 -47.191406 37.03125 -48.703125 C 35.695312 -50.222656 33.625 -51.007812 30.8125 -51.0625 C 28.0625 -51.113281 25.664062 -50.484375 23.625 -49.171875 C 21.59375 -47.867188 20.382812 -46.078125 20 -43.796875 C 19.46875 -40.785156 21.476562 -38.398438 26.03125 -36.640625 L 31.484375 -34.578125 L 34.625 -33.140625 C 42.75 -29.109375 46.546875 -23.457031 46.015625 -16.1875 C 45.773438 -12.632812 44.640625 -9.570312 42.609375 -7 C 40.585938 -4.425781 37.832031 -2.453125 34.34375 -1.078125 C 30.863281 0.296875 27.03125 0.945312 22.84375 0.875 C 18.570312 0.789062 14.769531 -0.101562 11.4375 -1.8125 C 8.101562 -3.519531 5.570312 -5.929688 3.84375 -9.046875 C 2.21875 -11.941406 1.457031 -15.25 1.5625 -18.96875 L 13.671875 -18.921875 C 13.285156 -12.390625 16.492188 -9.070312 23.296875 -8.96875 C 26.242188 -8.96875 28.664062 -9.613281 30.5625 -10.90625 C 32.46875 -12.195312 33.597656 -13.921875 33.953125 -16.078125 Z M 33.953125 -16.078125 "/></g></g></g><g fill="#289db9" fill-opacity="1"><g transform="translate(152.56977, 215.278314)"><g><path d="M 0.875 0 L 11.3125 -60.15625 L 28.59375 -60.109375 C 32.632812 -60.023438 36.273438 -59.109375 39.515625 -57.359375 C 42.753906 -55.609375 45.378906 -53.09375 47.390625 -49.8125 C 49.398438 -46.539062 50.609375 -42.851562 51.015625 -38.75 C 51.242188 -36.351562 51.21875 -33.898438 50.9375 -31.390625 L 50.65625 -29.203125 C 49.4375 -20.390625 45.96875 -13.316406 40.25 -7.984375 C 34.539062 -2.660156 27.609375 0 19.453125 0 Z M 21.6875 -50.109375 L 14.703125 -9.953125 L 19.75 -9.921875 C 25.3125 -9.921875 29.78125 -11.957031 33.15625 -16.03125 C 36.53125 -20.101562 38.460938 -26.257812 38.953125 -34.5 L 39.046875 -35.8125 C 39.128906 -40.363281 38.257812 -43.847656 36.4375 -46.265625 C 34.625 -48.691406 31.910156 -49.960938 28.296875 -50.078125 Z M 21.6875 -50.109375 "/></g></g></g><g fill="#289db9" fill-opacity="1"><g transform="translate(202.334746, 215.278314)"><g><path d="M 21.359375 0.828125 C 17.453125 0.796875 13.988281 -0.160156 10.96875 -2.046875 C 7.945312 -3.929688 5.691406 -6.519531 4.203125 -9.8125 C 2.722656 -13.101562 2.148438 -16.734375 2.484375 -20.703125 L 2.609375 -22.34375 C 3.015625 -26.695312 4.273438 -30.691406 6.390625 -34.328125 C 8.515625 -37.960938 11.242188 -40.765625 14.578125 -42.734375 C 17.910156 -44.703125 21.601562 -45.632812 25.65625 -45.53125 C 31.414062 -45.414062 35.773438 -43.300781 38.734375 -39.1875 C 41.691406 -35.070312 42.8125 -29.859375 42.09375 -23.546875 L 41.4375 -18.46875 L 14.046875 -18.46875 C 13.929688 -15.570312 14.628906 -13.253906 16.140625 -11.515625 C 17.660156 -9.785156 19.726562 -8.894531 22.34375 -8.84375 C 26.59375 -8.726562 30.3125 -10.363281 33.5 -13.75 L 38.828125 -7.140625 C 37.148438 -4.609375 34.726562 -2.632812 31.5625 -1.21875 C 28.394531 0.195312 24.992188 0.878906 21.359375 0.828125 Z M 25.078125 -35.90625 C 22.929688 -35.957031 21.023438 -35.28125 19.359375 -33.875 C 17.691406 -32.46875 16.195312 -30.03125 14.875 -26.5625 L 30.90625 -26.5625 L 31.15625 -27.640625 C 31.3125 -28.742188 31.320312 -29.789062 31.1875 -30.78125 C 30.914062 -32.375 30.242188 -33.617188 29.171875 -34.515625 C 28.097656 -35.410156 26.734375 -35.875 25.078125 -35.90625 Z M 25.078125 -35.90625 "/></g></g></g><g fill="#289db9" fill-opacity="1"><g transform="translate(243.13581, 215.278314)"><g><path d="M 18.71875 -44.734375 L 17.765625 -39.65625 C 21.367188 -43.675781 25.734375 -45.632812 30.859375 -45.53125 C 33.617188 -45.46875 35.90625 -44.832031 37.71875 -43.625 C 39.539062 -42.414062 40.765625 -40.773438 41.390625 -38.703125 C 45.328125 -43.359375 49.957031 -45.632812 55.28125 -45.53125 C 59.382812 -45.445312 62.472656 -44.039062 64.546875 -41.3125 C 66.628906 -38.582031 67.503906 -34.644531 67.171875 -29.5 L 67.09375 -28.46875 L 62.34375 0 L 50.65625 0 L 55.40625 -28.546875 C 55.507812 -29.566406 55.550781 -30.515625 55.53125 -31.390625 C 55.332031 -34.285156 53.675781 -35.773438 50.5625 -35.859375 C 47.375 -35.859375 44.632812 -34.148438 42.34375 -30.734375 L 42.21875 -29.78125 L 37.015625 0 L 25.359375 0 L 30.125 -28.46875 C 30.226562 -29.488281 30.265625 -30.4375 30.234375 -31.3125 C 30.046875 -34.226562 28.410156 -35.726562 25.328125 -35.8125 C 22.378906 -35.894531 19.71875 -34.503906 17.34375 -31.640625 L 11.78125 0 L 0.125 0 L 7.84375 -44.703125 Z M 18.71875 -44.734375 "/></g></g></g><g fill="#289db9" fill-opacity="1"><g transform="translate(310.622034, 215.278314)"><g><path d="M 12.4375 0 L 0.703125 0 L 8.46875 -44.703125 L 20.203125 -44.703125 Z M 9.828125 -56.0625 C 9.773438 -57.90625 10.378906 -59.429688 11.640625 -60.640625 C 12.910156 -61.859375 14.441406 -62.46875 16.234375 -62.46875 C 17.992188 -62.519531 19.519531 -61.976562 20.8125 -60.84375 C 22.113281 -59.71875 22.789062 -58.257812 22.84375 -56.46875 C 22.894531 -54.757812 22.320312 -53.269531 21.125 -52 C 19.925781 -50.738281 18.363281 -50.082031 16.4375 -50.03125 C 14.707031 -49.976562 13.1875 -50.5 11.875 -51.59375 C 10.570312 -52.695312 9.890625 -54.1875 9.828125 -56.0625 Z M 9.828125 -56.0625 "/></g></g></g><g fill="#289db9" fill-opacity="1"><g transform="translate(328.827469, 215.278314)"><g><path d="M 30.734375 -33.5 C 29.140625 -33.78125 27.832031 -33.921875 26.8125 -33.921875 C 22.65625 -34.023438 19.363281 -32.46875 16.9375 -29.25 L 11.78125 0 L 0.125 0 L 7.890625 -44.703125 L 18.84375 -44.734375 L 17.765625 -39.28125 C 20.578125 -43.5 24.046875 -45.609375 28.171875 -45.609375 C 29.328125 -45.609375 30.675781 -45.414062 32.21875 -45.03125 Z M 30.734375 -33.5 "/></g></g></g><g fill="#289db9" fill-opacity="1"><g transform="translate(140.492237, 246.281472)"><g><path d="M 4.9375 0 L 8.5625 -17.15625 L 2.140625 -17.15625 L 2.625 -19.515625 L 18.34375 -19.515625 L 17.859375 -17.15625 L 11.359375 -17.15625 L 7.765625 0 Z M 4.9375 0 "/></g></g></g><g fill="#289db9" fill-opacity="1"><g transform="translate(156.792883, 246.281472)"><g><path d="M 6.953125 0.34375 C 5.046875 0.34375 3.539062 -0.207031 2.4375 -1.3125 C 1.332031 -2.425781 0.78125 -3.925781 0.78125 -5.8125 C 0.78125 -7.507812 1.117188 -9.03125 1.796875 -10.375 C 2.472656 -11.71875 3.425781 -12.773438 4.65625 -13.546875 C 5.894531 -14.328125 7.351562 -14.71875 9.03125 -14.71875 C 10.332031 -14.71875 11.410156 -14.453125 12.265625 -13.921875 C 13.128906 -13.398438 13.78125 -12.6875 14.21875 -11.78125 C 14.65625 -10.882812 14.875 -9.878906 14.875 -8.765625 C 14.875 -8.066406 14.785156 -7.335938 14.609375 -6.578125 L 3.390625 -6.578125 C 3.367188 -6.441406 3.359375 -6.300781 3.359375 -6.15625 C 3.359375 -6.019531 3.359375 -5.882812 3.359375 -5.75 C 3.359375 -4.757812 3.546875 -3.976562 3.921875 -3.40625 C 4.304688 -2.832031 4.800781 -2.421875 5.40625 -2.171875 C 6.007812 -1.929688 6.625 -1.8125 7.25 -1.8125 C 8.0625 -1.8125 8.757812 -1.941406 9.34375 -2.203125 C 9.925781 -2.460938 10.425781 -2.8125 10.84375 -3.25 L 13.125 -2.546875 C 12.457031 -1.679688 11.613281 -0.984375 10.59375 -0.453125 C 9.570312 0.078125 8.359375 0.34375 6.953125 0.34375 Z M 3.734375 -8.5625 L 12.296875 -8.5625 C 12.316406 -8.65625 12.328125 -8.738281 12.328125 -8.8125 C 12.328125 -8.894531 12.328125 -8.976562 12.328125 -9.0625 C 12.328125 -9.644531 12.203125 -10.207031 11.953125 -10.75 C 11.710938 -11.300781 11.328125 -11.75 10.796875 -12.09375 C 10.265625 -12.445312 9.554688 -12.625 8.671875 -12.625 C 7.953125 -12.625 7.25 -12.46875 6.5625 -12.15625 C 5.882812 -11.84375 5.289062 -11.382812 4.78125 -10.78125 C 4.28125 -10.175781 3.929688 -9.4375 3.734375 -8.5625 Z M 3.734375 -8.5625 "/></g></g></g><g fill="#289db9" fill-opacity="1"><g transform="translate(172.626135, 246.281472)"><g><path d="M 6.484375 0.34375 C 4.671875 0.34375 3.265625 -0.1875 2.265625 -1.25 C 1.265625 -2.320312 0.765625 -3.773438 0.765625 -5.609375 C 0.765625 -7.265625 1.085938 -8.78125 1.734375 -10.15625 C 2.390625 -11.53125 3.316406 -12.632812 4.515625 -13.46875 C 5.710938 -14.300781 7.109375 -14.71875 8.703125 -14.71875 C 10.023438 -14.71875 11.132812 -14.441406 12.03125 -13.890625 C 12.925781 -13.335938 13.617188 -12.535156 14.109375 -11.484375 L 11.6875 -10.640625 C 11.488281 -11.222656 11.109375 -11.6875 10.546875 -12.03125 C 9.984375 -12.382812 9.332031 -12.5625 8.59375 -12.5625 C 7.476562 -12.5625 6.539062 -12.238281 5.78125 -11.59375 C 5.019531 -10.957031 4.441406 -10.117188 4.046875 -9.078125 C 3.648438 -8.046875 3.453125 -6.9375 3.453125 -5.75 C 3.453125 -4.644531 3.71875 -3.710938 4.25 -2.953125 C 4.789062 -2.191406 5.722656 -1.8125 7.046875 -1.8125 C 7.835938 -1.8125 8.53125 -1.976562 9.125 -2.3125 C 9.71875 -2.65625 10.234375 -3.117188 10.671875 -3.703125 L 12.734375 -2.890625 C 12.078125 -1.816406 11.195312 -1.007812 10.09375 -0.46875 C 8.988281 0.0703125 7.785156 0.34375 6.484375 0.34375 Z M 6.484375 0.34375 "/></g></g></g><g fill="#289db9" fill-opacity="1"><g transform="translate(187.086383, 246.281472)"><g><path d="M 0.203125 0 L 4.359375 -19.515625 L 6.859375 -19.515625 L 5.375 -12.46875 C 5.863281 -13.09375 6.492188 -13.625 7.265625 -14.0625 C 8.035156 -14.5 9.070312 -14.71875 10.375 -14.71875 C 11.601562 -14.71875 12.5625 -14.390625 13.25 -13.734375 C 13.9375 -13.085938 14.28125 -12.070312 14.28125 -10.6875 C 14.28125 -10.03125 14.195312 -9.273438 14.03125 -8.421875 L 12.21875 0 L 9.734375 0 L 11.453125 -8.1875 C 11.628906 -9.039062 11.71875 -9.738281 11.71875 -10.28125 C 11.71875 -11.125 11.519531 -11.710938 11.125 -12.046875 C 10.738281 -12.390625 10.128906 -12.5625 9.296875 -12.5625 C 8.585938 -12.5625 7.898438 -12.40625 7.234375 -12.09375 C 6.578125 -11.78125 5.988281 -11.253906 5.46875 -10.515625 C 4.957031 -9.773438 4.566406 -8.773438 4.296875 -7.515625 L 2.71875 0 Z M 0.203125 0 "/></g></g></g><g fill="#289db9" fill-opacity="1"><g transform="translate(203.094912, 246.281472)"><g><path d="M 0.234375 0 L 3.296875 -14.5 L 5.171875 -14.5 L 5.34375 -12.46875 C 5.832031 -13.09375 6.46875 -13.625 7.25 -14.0625 C 8.039062 -14.5 9.09375 -14.71875 10.40625 -14.71875 C 11.632812 -14.71875 12.59375 -14.382812 13.28125 -13.71875 C 13.96875 -13.0625 14.3125 -12.046875 14.3125 -10.671875 C 14.3125 -10.003906 14.222656 -9.242188 14.046875 -8.390625 L 12.25 0 L 9.765625 0 L 11.484375 -8.15625 C 11.660156 -9.007812 11.75 -9.707031 11.75 -10.25 C 11.75 -11.113281 11.550781 -11.710938 11.15625 -12.046875 C 10.769531 -12.390625 10.160156 -12.5625 9.328125 -12.5625 C 8.617188 -12.5625 7.929688 -12.40625 7.265625 -12.09375 C 6.609375 -11.78125 6.019531 -11.253906 5.5 -10.515625 C 4.988281 -9.773438 4.597656 -8.773438 4.328125 -7.515625 L 2.75 0 Z M 0.234375 0 "/></g></g></g><g fill="#289db9" fill-opacity="1"><g transform="translate(219.161862, 246.281472)"><g><path d="M 6.6875 -17.265625 C 6.195312 -17.265625 5.769531 -17.441406 5.40625 -17.796875 C 5.050781 -18.160156 4.875 -18.585938 4.875 -19.078125 C 4.875 -19.585938 5.050781 -20.019531 5.40625 -20.375 C 5.769531 -20.738281 6.195312 -20.921875 6.6875 -20.921875 C 7.195312 -20.921875 7.628906 -20.738281 7.984375 -20.375 C 8.347656 -20.019531 8.53125 -19.585938 8.53125 -19.078125 C 8.53125 -18.585938 8.347656 -18.160156 7.984375 -17.796875 C 7.628906 -17.441406 7.195312 -17.265625 6.6875 -17.265625 Z M 1.34375 0 L 4 -12.5 L 1.671875 -12.5 L 2.078125 -14.5 L 6.921875 -14.5 L 3.859375 0 Z M 1.34375 0 "/></g></g></g><g fill="#289db9" fill-opacity="1"><g transform="translate(227.049269, 246.281472)"><g><path d="M 6.484375 0.34375 C 4.671875 0.34375 3.265625 -0.1875 2.265625 -1.25 C 1.265625 -2.320312 0.765625 -3.773438 0.765625 -5.609375 C 0.765625 -7.265625 1.085938 -8.78125 1.734375 -10.15625 C 2.390625 -11.53125 3.316406 -12.632812 4.515625 -13.46875 C 5.710938 -14.300781 7.109375 -14.71875 8.703125 -14.71875 C 10.023438 -14.71875 11.132812 -14.441406 12.03125 -13.890625 C 12.925781 -13.335938 13.617188 -12.535156 14.109375 -11.484375 L 11.6875 -10.640625 C 11.488281 -11.222656 11.109375 -11.6875 10.546875 -12.03125 C 9.984375 -12.382812 9.332031 -12.5625 8.59375 -12.5625 C 7.476562 -12.5625 6.539062 -12.238281 5.78125 -11.59375 C 5.019531 -10.957031 4.441406 -10.117188 4.046875 -9.078125 C 3.648438 -8.046875 3.453125 -6.9375 3.453125 -5.75 C 3.453125 -4.644531 3.71875 -3.710938 4.25 -2.953125 C 4.789062 -2.191406 5.722656 -1.8125 7.046875 -1.8125 C 7.835938 -1.8125 8.53125 -1.976562 9.125 -2.3125 C 9.71875 -2.65625 10.234375 -3.117188 10.671875 -3.703125 L 12.734375 -2.890625 C 12.078125 -1.816406 11.195312 -1.007812 10.09375 -0.46875 C 8.988281 0.0703125 7.785156 0.34375 6.484375 0.34375 Z M 6.484375 0.34375 "/></g></g></g><g fill="#289db9" fill-opacity="1"><g transform="translate(241.509516, 246.281472)"><g><path d="M 4.5 0.34375 C 3.25 0.34375 2.207031 0.00390625 1.375 -0.671875 C 0.550781 -1.347656 0.140625 -2.265625 0.140625 -3.421875 C 0.140625 -4.390625 0.394531 -5.195312 0.90625 -5.84375 C 1.425781 -6.488281 2.097656 -7.003906 2.921875 -7.390625 C 3.753906 -7.785156 4.65625 -8.082031 5.625 -8.28125 C 6.59375 -8.488281 7.53125 -8.640625 8.4375 -8.734375 C 9.351562 -8.828125 10.144531 -8.914062 10.8125 -9 C 10.875 -9.269531 10.921875 -9.519531 10.953125 -9.75 C 10.992188 -9.988281 11.015625 -10.21875 11.015625 -10.4375 C 11.015625 -11.96875 10.117188 -12.734375 8.328125 -12.734375 C 7.429688 -12.734375 6.671875 -12.535156 6.046875 -12.140625 C 5.421875 -11.742188 4.941406 -11.191406 4.609375 -10.484375 L 2.421875 -11.15625 C 2.929688 -12.25 3.671875 -13.113281 4.640625 -13.75 C 5.617188 -14.394531 6.804688 -14.71875 8.203125 -14.71875 C 9.898438 -14.71875 11.207031 -14.378906 12.125 -13.703125 C 13.039062 -13.023438 13.5 -11.972656 13.5 -10.546875 C 13.5 -10.210938 13.472656 -9.878906 13.421875 -9.546875 C 13.378906 -9.222656 13.289062 -8.757812 13.15625 -8.15625 C 13.03125 -7.550781 12.84375 -6.664062 12.59375 -5.5 C 12.34375 -4.289062 12.171875 -3.238281 12.078125 -2.34375 C 11.992188 -1.457031 11.941406 -0.675781 11.921875 0 L 9.609375 0 L 9.5 -1.84375 C 8.851562 -1.125 8.144531 -0.578125 7.375 -0.203125 C 6.601562 0.160156 5.644531 0.34375 4.5 0.34375 Z M 5.28125 -1.671875 C 6.613281 -1.671875 7.75 -2.113281 8.6875 -3 C 9.632812 -3.882812 10.234375 -5.066406 10.484375 -6.546875 L 10.578125 -7.046875 C 8.960938 -6.890625 7.578125 -6.707031 6.421875 -6.5 C 5.273438 -6.289062 4.398438 -5.972656 3.796875 -5.546875 C 3.191406 -5.117188 2.890625 -4.488281 2.890625 -3.65625 C 2.890625 -2.988281 3.125 -2.488281 3.59375 -2.15625 C 4.0625 -1.832031 4.625 -1.671875 5.28125 -1.671875 Z M 5.28125 -1.671875 "/></g></g></g><g fill="#289db9" fill-opacity="1"><g transform="translate(256.729291, 246.281472)"><g><path d="M 3.6875 0 C 2.550781 0 1.78125 -0.160156 1.375 -0.484375 C 0.976562 -0.804688 0.78125 -1.296875 0.78125 -1.953125 C 0.78125 -2.484375 0.851562 -3.050781 1 -3.65625 L 4.359375 -19.515625 L 6.859375 -19.515625 L 3.59375 -4.09375 C 3.550781 -3.875 3.515625 -3.675781 3.484375 -3.5 C 3.460938 -3.332031 3.453125 -3.175781 3.453125 -3.03125 C 3.453125 -2.738281 3.535156 -2.523438 3.703125 -2.390625 C 3.878906 -2.253906 4.210938 -2.1875 4.703125 -2.1875 L 5.78125 -2.1875 L 5.3125 0 Z M 3.6875 0 "/></g></g></g><g fill="#289db9" fill-opacity="1"><g transform="translate(264.295354, 246.281472)"><g/></g></g><g fill="#289db9" fill-opacity="1"><g transform="translate(272.474896, 246.281472)"><g><path d="M 3.390625 0 L 2.625 -19.515625 L 5.546875 -19.515625 L 5.90625 -3.734375 L 12.734375 -19.515625 L 16.046875 -19.515625 L 16.1875 -3.421875 L 23.484375 -19.515625 L 26.703125 -19.515625 L 17.640625 0 L 14.109375 0 L 13.796875 -16.09375 L 6.625 0 Z M 3.390625 0 "/></g></g></g><g fill="#289db9" fill-opacity="1"><g transform="translate(297.130361, 246.281472)"><g><path d="M 0.234375 0 L 3.296875 -14.5 L 5.140625 -14.5 L 5.375 -11.78125 C 5.976562 -12.632812 6.679688 -13.335938 7.484375 -13.890625 C 8.296875 -14.441406 9.425781 -14.71875 10.875 -14.71875 L 11.1875 -14.71875 L 10.640625 -12.125 C 10.085938 -12.144531 9.578125 -12.113281 9.109375 -12.03125 C 7.628906 -11.800781 6.492188 -11.144531 5.703125 -10.0625 C 4.921875 -8.976562 4.351562 -7.617188 4 -5.984375 L 2.75 0 Z M 0.234375 0 "/></g></g></g><g fill="#289db9" fill-opacity="1"><g transform="translate(307.442417, 246.281472)"><g><path d="M 6.6875 -17.265625 C 6.195312 -17.265625 5.769531 -17.441406 5.40625 -17.796875 C 5.050781 -18.160156 4.875 -18.585938 4.875 -19.078125 C 4.875 -19.585938 5.050781 -20.019531 5.40625 -20.375 C 5.769531 -20.738281 6.195312 -20.921875 6.6875 -20.921875 C 7.195312 -20.921875 7.628906 -20.738281 7.984375 -20.375 C 8.347656 -20.019531 8.53125 -19.585938 8.53125 -19.078125 C 8.53125 -18.585938 8.347656 -18.160156 7.984375 -17.796875 C 7.628906 -17.441406 7.195312 -17.265625 6.6875 -17.265625 Z M 1.34375 0 L 4 -12.5 L 1.671875 -12.5 L 2.078125 -14.5 L 6.921875 -14.5 L 3.859375 0 Z M 1.34375 0 "/></g></g></g><g fill="#289db9" fill-opacity="1"><g transform="translate(315.329825, 246.281472)"><g><path d="M 4.671875 0 C 3.546875 0 2.769531 -0.160156 2.34375 -0.484375 C 1.925781 -0.804688 1.71875 -1.296875 1.71875 -1.953125 C 1.71875 -2.378906 1.816406 -3.039062 2.015625 -3.9375 L 3.859375 -12.5 L 1.4375 -12.5 L 1.84375 -14.5 L 4.265625 -14.5 L 5.0625 -18.109375 L 7.5625 -18.109375 L 6.78125 -14.5 L 9.546875 -14.5 L 9.140625 -12.5 L 6.375 -12.5 L 4.671875 -4.640625 C 4.597656 -4.296875 4.535156 -3.976562 4.484375 -3.6875 C 4.429688 -3.40625 4.40625 -3.1875 4.40625 -3.03125 C 4.40625 -2.726562 4.492188 -2.507812 4.671875 -2.375 C 4.847656 -2.25 5.179688 -2.1875 5.671875 -2.1875 L 6.953125 -2.1875 L 6.484375 0 Z M 4.671875 0 "/></g></g></g><g fill="#289db9" fill-opacity="1"><g transform="translate(324.794725, 246.281472)"><g><path d="M 6.953125 0.34375 C 5.046875 0.34375 3.539062 -0.207031 2.4375 -1.3125 C 1.332031 -2.425781 0.78125 -3.925781 0.78125 -5.8125 C 0.78125 -7.507812 1.117188 -9.03125 1.796875 -10.375 C 2.472656 -11.71875 3.425781 -12.773438 4.65625 -13.546875 C 5.894531 -14.328125 7.351562 -14.71875 9.03125 -14.71875 C 10.332031 -14.71875 11.410156 -14.453125 12.265625 -13.921875 C 13.128906 -13.398438 13.78125 -12.6875 14.21875 -11.78125 C 14.65625 -10.882812 14.875 -9.878906 14.875 -8.765625 C 14.875 -8.066406 14.785156 -7.335938 14.609375 -6.578125 L 3.390625 -6.578125 C 3.367188 -6.441406 3.359375 -6.300781 3.359375 -6.15625 C 3.359375 -6.019531 3.359375 -5.882812 3.359375 -5.75 C 3.359375 -4.757812 3.546875 -3.976562 3.921875 -3.40625 C 4.304688 -2.832031 4.800781 -2.421875 5.40625 -2.171875 C 6.007812 -1.929688 6.625 -1.8125 7.25 -1.8125 C 8.0625 -1.8125 8.757812 -1.941406 9.34375 -2.203125 C 9.925781 -2.460938 10.425781 -2.8125 10.84375 -3.25 L 13.125 -2.546875 C 12.457031 -1.679688 11.613281 -0.984375 10.59375 -0.453125 C 9.570312 0.078125 8.359375 0.34375 6.953125 0.34375 Z M 3.734375 -8.5625 L 12.296875 -8.5625 C 12.316406 -8.65625 12.328125 -8.738281 12.328125 -8.8125 C 12.328125 -8.894531 12.328125 -8.976562 12.328125 -9.0625 C 12.328125 -9.644531 12.203125 -10.207031 11.953125 -10.75 C 11.710938 -11.300781 11.328125 -11.75 10.796875 -12.09375 C 10.265625 -12.445312 9.554688 -12.625 8.671875 -12.625 C 7.953125 -12.625 7.25 -12.46875 6.5625 -12.15625 C 5.882812 -11.84375 5.289062 -11.382812 4.78125 -10.78125 C 4.28125 -10.175781 3.929688 -9.4375 3.734375 -8.5625 Z M 3.734375 -8.5625 "/></g></g></g><g fill="#289db9" fill-opacity="1"><g transform="translate(340.627978, 246.281472)"><g><path d="M 0.234375 0 L 3.296875 -14.5 L 5.140625 -14.5 L 5.375 -11.78125 C 5.976562 -12.632812 6.679688 -13.335938 7.484375 -13.890625 C 8.296875 -14.441406 9.425781 -14.71875 10.875 -14.71875 L 11.1875 -14.71875 L 10.640625 -12.125 C 10.085938 -12.144531 9.578125 -12.113281 9.109375 -12.03125 C 7.628906 -11.800781 6.492188 -11.144531 5.703125 -10.0625 C 4.921875 -8.976562 4.351562 -7.617188 4 -5.984375 L 2.75 0 Z M 0.234375 0 "/></g></g></g></svg>